<?xml version="1.0" encoding="utf-8"?>
<!-- Generator: $$$/GeneralStr/196=Adobe Illustrator 27.6.0, SVG Export Plug-In . SVG Version: 6.00 Build 0)  -->
<svg version="1.1" xmlns="http://www.w3.org/2000/svg" xmlns:xlink="http://www.w3.org/1999/xlink" x="0px" y="0px"
	 viewBox="0 0 659.1 181" style="enable-background:new 0 0 659.1 181;" xml:space="preserve">
<style type="text/css">
	.st0{fill:#FFFFFF;}
</style>
<g id="Ebene_1">
	<g>
		<path d="M49-389.3c-8.1,3.4-14.3,8.4-18.7,15.1c-4.4,6.7-6.5,14.8-6.5,24.3c0,3.9,0.4,6.9,1.3,9c0.2,0.8,0.5,1.4,0.9,2
			c0.2,0.4,0.4,0.8,0.4,1.2c-6.4,0-11.2-1.3-14.3-3.9c-3.3-2.8-4.9-7.3-4.9-13.6c0-3.9,0.8-7.7,2.5-11.6s4.1-7.6,7.2-11.2
			c3-3.5,6.5-6.6,10.5-9.6c4-2.9,8.4-5.5,13.2-7.6c10.1-4.5,20-6.8,29.7-6.8c2.7,0,5.1,0.1,7.2,0.4l-11.5,53.6h26.5l11.5-53.6h25.9
			l-28.6,134.6H75.3l14.4-67.7H63.2l-14.4,67.7H22.9L49-389.3z"/>
		<path d="M128.8-270.9c-3.8-3.7-5.6-9.2-5.6-16.4c0-3.4,0.5-7.3,1.4-11.8l12.2-57.7h25.9l-12.9,61.2c-0.4,1.8-0.5,3.5-0.5,5.1
			c0,4.9,1.8,7.4,5.4,7.4c3.3,0,6.2-1.5,8.9-4.5c2.1-2.5,4-6.3,5.5-11.4l12.2-57.7h25.9l-12.9,61.2c-0.5,1.8-0.8,3.7-0.8,5.8
			c0,2.5,0.6,4.2,1.8,5.2c1.2,1,3,1.5,5.6,1.5c3.3,0,6.3-1.5,9-4.5c2.3-2.6,4.2-6.4,5.6-11.4h7.6c-3.2,9.1-7.1,16.4-11.7,21.7
			c-3.9,4.4-8.2,7.6-13.1,9.5c-3.6,1.4-7.4,2.1-11.3,2.1c-5.2,0-9.3-1.4-12.3-4.3c-3-2.9-4.9-7.1-5.5-12.7
			c-4.1,6.6-8.7,11.2-13.9,14.1c-3.7,2-7.9,3-12.7,3C136.7-265.8,132.1-267.5,128.8-270.9z"/>
		<path d="M219.7-270.9c-3.8-3.7-5.6-9.2-5.6-16.4c0-3.4,0.5-7.3,1.4-11.8l19.2-90.2l26.6-3.6l-20.7,97.2c-0.5,1.5-0.7,3.5-0.7,5.8
			c0,2.5,0.6,4.2,1.7,5.2c1.1,1,3,1.5,5.6,1.5c1.8,0,3.5-0.4,5.1-1.2s3.2-1.9,4.6-3.3c2.9-2.9,5-6.7,6.5-11.4h7.6
			c-3.2,9.1-7.3,16.3-12.1,21.7c-4.1,4.4-8.7,7.6-13.9,9.5c-3.8,1.4-7.7,2.1-11.8,2.1C227.6-265.8,223-267.5,219.7-270.9z"/>
		<path d="M268.6-272.3c-4.9-5-7.4-12.5-7.4-22.5c0-4.2,0.4-8.7,1.3-13.4c0.8-4.7,2.1-9.3,3.7-13.9c3.7-10.3,8.9-18.6,15.4-25
			c7.5-7.2,16.1-10.8,25.9-10.8c4.9,0,8.5,0.8,10.9,2.5c2.4,1.7,3.6,3.9,3.6,6.6v1.3l1.9-9.6h25.9L337-295.7
			c-0.5,1.8-0.8,3.7-0.8,5.8c0,5.2,2.5,7.7,7.4,7.7c3.3,0,6.3-1.7,9-5c2.3-2.8,4.2-6.8,5.6-12h7.6c-3.2,9.1-7.1,16.4-11.7,21.7
			c-3.9,4.4-8.2,7.6-13.1,9.5c-3.6,1.4-7.4,2.1-11.3,2.1c-5.1,0-9.2-1.4-12.2-4.2c-3-2.8-4.8-6.9-5.5-12.3c-3.4,4.8-7,8.6-10.7,11.2
			c-4.8,3.5-10.2,5.3-16.1,5.3C278.3-265.8,272.8-268,268.6-272.3z M301.1-284.3c1.5-0.7,2.9-1.7,4.4-3c3.2-3,5.3-7,6.3-11.9
			l8.6-40.6c0-0.6-0.1-1.3-0.4-2.1s-0.6-1.5-1.1-2.2c-1.4-1.7-3.4-2.5-5.9-2.5c-2.4,0-4.7,0.8-7,2.4c-2.3,1.6-4.4,3.8-6.4,6.6
			c-3.5,5.1-6.4,11.7-8.7,20c-1.1,3.6-1.8,7.2-2.4,10.8c-0.5,3.5-0.8,6.8-0.8,9.6c0,6,1.1,10,3.3,12.1c0.8,0.8,1.6,1.3,2.5,1.6
			c0.9,0.2,2,0.4,3.2,0.4C298.2-283.2,299.6-283.6,301.1-284.3z"/>
		<path d="M362.4-270.9c-3.8-3.7-5.6-9.2-5.6-16.4c0-3.4,0.5-7.3,1.4-11.8l19.2-90.2l26.6-3.6l-20.7,97.2c-0.5,1.5-0.7,3.5-0.7,5.8
			c0,2.5,0.6,4.2,1.7,5.2c1.1,1,3,1.5,5.6,1.5c1.8,0,3.5-0.4,5.1-1.2s3.2-1.9,4.6-3.3c2.9-2.9,5-6.7,6.5-11.4h7.6
			c-3.2,9.1-7.3,16.3-12.1,21.7c-4.1,4.4-8.7,7.6-13.9,9.5c-3.8,1.4-7.7,2.1-11.8,2.1C370.3-265.8,365.8-267.5,362.4-270.9z"/>
		<path d="M446.2-285.2c-2.2,1.9-4.4,2.9-6.5,2.9c-1.8,0-3.3-0.2-4.4-0.7c-1.1-0.4-2-1.2-2.7-2.2c-0.8-1.1-1.3-2.5-1.6-4.4
			c-0.3-1.9-0.5-4.3-0.5-7.3c0-6.2,1.1-13.2,3.3-21.1c2.3-8.1,5.2-14.9,8.8-20.4c3.9-6.1,7.8-9.1,11.9-9.1c1.2,0,2.2,0.2,3,0.5
			s3.7,6.1,4.2,6.9c0.7,1.2,7.8-3.1,12-5c-3.3-8.9-10.3-13.4-20.8-13.4c-11.2,0-20.9,4-29.1,12c-6.7,6.5-11.9,15.2-15.6,26.1
			c-1.6,4.6-2.8,9.1-3.5,13.6c-0.8,4.5-1.1,8.6-1.1,12.3c0,9.8,2.7,17.1,8.2,21.9c4.9,4.3,11.7,6.5,20.7,6.5
			c5.5,0,10.7-1.3,15.6-3.8c4.8-2.5,69.5-64.5,73.2-69c-3.2-3.7-6.6-6.7-9.3-10.8C510.4-347.1,448-286.8,446.2-285.2"/>
		<path d="M584.9-340.2c-4.3,3-8.8,5.5-13.6,7.5c-5.4,2.2-10.2,3.3-14.2,3.3H556c-0.2,0-0.5-0.1-0.9-0.2v-0.2
			c0-19.2-7.7-28.7-23.1-28.7c-9.9,0-12.5,2.6-20,8.8c3.7,5.7,4.4,6,9.3,10.8c0.9-1.8,8.1-8.6,12.1-8.6c1.2,0,2.2,0.2,3,0.5
			s1.5,0.9,2,1.8c1,1.6,1.6,4.4,1.8,8.2c-1.8,0.8-3.1,2-4.1,3.6c-1,1.6-1.5,3.7-1.5,6.2c0,2,0.4,3.6,1.1,4.9c0.7,1.3,2,2.2,3.7,2.6
			c-0.7,5.2-1.8,10.1-3.2,14.7s-3.1,8.6-5,12c-1.9,3.4-4,6.1-6.2,8c-2.2,1.9-4.4,2.9-6.5,2.9c-1.8,0-3.3-0.2-4.4-0.7
			c-0.6-0.2-3.7-4.1-3.8-4.5c-0.1,0-37.6-59.6-37.6-59.6l-11.1,7c-1.3,0.6,32,70,49.8,73.9c5.4,1.2,10.7-1.3,15.6-3.8
			c4.9-2.5,9.3-6.1,13.1-10.8c3.9-4.8,7-10.6,9.5-17.3c2.5-6.7,4-14.1,4.7-22.3c6.7-1.1,12.8-3,18.3-5.5c5.5-2.6,10.1-5.7,13.6-9.4
			L584.9-340.2z"/>
		<path d="M463.2-340.9"/>
		<path d="M578-363.6h25.9L601-350c6.1-5.2,13.1-7.7,21-7.7c6.7,0,12,2.1,15.6,6.2c4.2,4.8,6.3,12.2,6.3,22.2
			c0,9.7-1.2,18.8-3.7,27.2c-3.1,10.8-7.6,19.2-13.5,25.2c-7.3,7.4-16.3,11.1-27.1,11.1c-4.2,0-7.6-0.6-10.3-1.9
			c-2.1-0.9-3.7-2.4-5-4.5l-9.3,43.9l-27.2,6.5L578-363.6z M609.1-290.4c3.3-4.6,5.9-11.1,7.9-19.5c1.6-6.7,2.4-13.4,2.4-20
			c0-5.9-1.1-10.1-3.3-12.7c-1.4-1.5-3.3-2.3-5.8-2.3c-2.2,0-4.4,0.8-6.6,2.3c-2.2,1.5-4.2,3.7-5.8,6.6l-10.6,50.4
			c0.4,1.2,1.2,2.2,2.3,2.9s2.7,1.2,4.5,1.2C600-281.5,605-284.4,609.1-290.4z"/>
	</g>
	<g>
		<path class="st0" d="M40.7,135c0,4.8-3,7.2-9,7.2c-5.9,0-8.9-2.4-8.9-7.2V28.7c0-4.8,2.9-7.2,8.9-7.2c6,0,9,2.4,9,7.2V135z
			 M75.8,79.4c0,3.5-1.2,6.5-3.6,8.9s-5.4,3.6-8.9,3.6c-3.4,0-6.3-1.2-8.7-3.6c-2.4-2.4-3.6-5.3-3.6-8.9c0-3.5,1.2-6.4,3.6-8.8
			c2.4-2.4,5.3-3.6,8.7-3.6c3.5,0,6.5,1.2,8.9,3.6C74.6,72.9,75.8,75.9,75.8,79.4z M86.3,28.7c0-4.8,2.9-7.2,8.8-7.2
			c6,0,9,2.4,9,7.2V135c0,4.8-3,7.2-9,7.2c-5.9,0-8.8-2.4-8.8-7.2V28.7z"/>
		<path class="st0" d="M196.9,117.5c0,4-0.7,7.6-2.1,10.7c-1.4,3.1-3.4,5.6-6,7.5h0.1c-2.5,1.7-5.2,3.1-8,4.1
			c-2.8,1-5.5,1.6-8.1,1.6h-24.1c-2.5,0-5.2-0.5-8-1.6s-5.5-2.4-8-4.1h0.1c-2.6-1.9-4.6-4.4-6-7.5c-1.4-3.1-2.1-6.6-2.1-10.7V57.3
			c0-4.8,2.7-7.2,8.2-7.2c5.5,0,8.2,2.4,8.2,7.2v59c0,2.8,0.7,5.2,2.1,7.3c1.3,2.4,4,3.6,8.1,3.6h18.8c4,0,6.6-1.2,7.9-3.6l-0.1,0.2
			c1.6-2.4,2.4-4.9,2.4-7.5v-59c0-4.8,2.7-7.2,8.2-7.2c5.5,0,8.2,2.4,8.2,7.2V117.5z"/>
		<path class="st0" d="M232.7,135.5c0,4.7-2.8,7.1-8.2,7.1c-5.6,0-8.4-2.3-8.4-7.1V27.9c0-4.7,2.8-7.1,8.4-7.1
			c5.5,0,8.2,2.4,8.2,7.1V135.5z"/>
		<path class="st0" d="M276.1,141.3c-3.1,0-6.1-0.4-8.8-1.3c-2.8-0.8-5.5-2.1-8.1-3.7v0.2c-4.9-3.1-7.3-8.8-7.3-17.1v-7.3
			c0-4.1,0.7-7.7,2.2-10.7c1.4-3,3.5-5.5,6.1-7.3h-0.2c2.5-1.7,5.1-3,8-3.8c2.8-0.8,5.5-1.3,8.1-1.3h33.1V75c0-2.5-0.8-4.8-2.3-6.8
			c-1.6-2-4.2-3.1-7.9-3.1h-17.5c-3.8,0-6.4,0.9-7.9,2.8c-1.5,1.9-2.2,4-2.2,6.5v1.2c0,5.2-2.8,7.8-8.4,7.8c-5.6,0-8.4-2.6-8.4-7.8
			v-1.3c0-4.1,0.7-7.5,2.2-10.4c1.4-2.8,3.4-5.1,5.9-7.1h-0.1c2.6-1.7,5.3-3.1,8.2-4.2c2.8-1.1,5.6-1.6,8.2-1.6h22.8
			c2.5,0,5.2,0.6,8,1.6c2.8,1.1,5.5,2.5,8,4.2h-0.1c2.6,1.9,4.6,4.4,6,7.4c1.4,3.1,2.1,6.6,2.1,10.6V135c0,4.8-2.8,7.2-8.2,7.2
			c-1.1,0-2.1-0.1-3.1-0.1c-1-0.1-1.8-0.4-2.5-0.8s-1.3-1.1-1.8-2c-0.5-0.8-0.7-2-0.7-3.4l-0.2-32.8h-30.3c-2.2,0-3.9,0.3-5.1,0.8
			c-1.2,0.5-2.2,1.3-2.9,2.4c-0.8,1.7-1.4,3-1.7,4c-0.4,1-0.5,2-0.5,3.2v5.9c0,2.6,0.8,4.6,2.3,5.9c1.5,1.3,4.2,2,8,2h16.8
			c3.7,0,5.5,2.4,5.5,7.1c0,2-0.5,3.7-1.3,5c-0.9,1.4-2.3,2-4.2,2H276.1z"/>
		<path class="st0" d="M362,135.5c0,4.7-2.8,7.1-8.2,7.1c-5.6,0-8.4-2.3-8.4-7.1V27.9c0-4.7,2.8-7.1,8.4-7.1c5.5,0,8.2,2.4,8.2,7.1
			V135.5z"/>
		<path class="st0" d="M478.6,60c0,0-41.9,63.1-42.7,64.1c-1.6,2.1-4.2,3.1-7.9,3.1h-18.6c-3.7,0-6.3-1-7.9-3.1
			c-1.6-2.1-2.3-4.4-2.3-6.8V75c0-2.5,0.8-4.8,2.3-6.8c1.5-2,4.2-3.1,7.9-3.1H428c3.7,0,6.3,1,7.9,3.1c0.2,0.3,42.2,63.9,42.4,64.2
			c0.4-0.3,1.2,0.6,1.8,0.4c4.3-1.2,3.5-1.3,7-3.9c0.4-0.3,5-4.6,5.4-4.9c-1.1-1.4-44.4-66.2-45.8-67.2c0,0,0-0.3-2.2-1.7
			c-2.2-1.4-2.9-1.4-5.7-2.5c-2.8-1.1-5.4-1.6-8-1.6h-24c-2.6,0-5.3,0.6-8.1,1.6c-2.8,1.1-5.5,2.5-8,4.2h0.2c-2.6,1.9-4.6,4.4-6,7.4
			c-1.4,3.1-2.1,6.6-2.1,10.6v42.6c0,8.3,2.7,14.4,8.1,18.2c2.6,2,5.2,3.5,8,4.3c2.7,0.9,5.3,1.4,8,1.4h24c5.3,0,10.6-2,15.9-5.7
			c4.3-3,45.2-66.6,45.2-66.6L478.6,60z"/>
		<path class="st0" d="M594.8,141.3c-3.6,0-5.5-2.3-5.7-7c0-4.7,1.9-7.1,5.7-7.1H610c3.7,0,6.3-1,7.9-3.1c1.5-2.1,2.3-4.4,2.3-6.8
			V75c0-2.5-0.8-4.8-2.3-7c-1.6-2.1-4.2-3.1-8-2.9H581v90.2c0,4.7-2.8,7-8.2,7c-5.5,0-8.2-2.4-8.2-7.2V59.9c0-3.5,0.9-5.8,2.7-7
			c1.8-1.2,4-1.8,6.6-1.8h38.8c2.6,0,5.2,0.4,7.9,1.3c2.6,0.9,5.4,2.2,8.2,3.8c2.4,1.7,4.3,4.1,5.8,7.1c1.4,3.1,2.2,6.6,2.2,10.7
			v44.4c0,8.2-2.7,14.1-8,17.5c-5.6,3.6-10.9,5.4-16,5.4H594.8z"/>
		<path class="st0" d="M490.1,121.9c0.4,1,1.6,1.2,2.3,2.2c1.6,2.1,4.2,3.1,7.9,3.1h18.6c3.7,0,6.3-1,7.9-3.1
			c1.6-2.1,2.3-4.4,2.3-6.8V75c0-2.5-0.8-4.8-2.3-6.8c-1.5-2-4.2-3.1-7.9-3.1h-18.6c-3.7,0-6.3,1-7.9,3.1c-0.2,0.3-0.4,0.6-0.6,0.8
			c-0.4-0.3-0.9-0.5-1.5-0.7c-4.3-1.2-7.6-4.4-11.1-7c-0.4-0.3-0.3-1.1-0.7-1.3c1.1-1.4,1.8-2.1,3.2-3.1c0,0,5.1-3.1,7.9-4.2
			c2.8-1.1,5.4-1.6,8-1.6h24c2.6,0,5.3,0.6,8.1,1.6c2.8,1.1,5.5,2.5,8,4.2h-0.2c2.6,1.9,4.6,4.4,6,7.4c1.4,3.1,2.1,6.6,2.1,10.6
			v42.6c0,8.3-2.7,14.4-8.1,18.2c-2.6,2-5.2,3.5-8,4.3c-2.7,0.9-5.3,1.4-8,1.4h-24c-5.3,0-10.6-1.9-15.9-5.7c-1.3-1-2.5-2-3.5-3.2
			C482.4,128.6,486.5,126.1,490.1,121.9z"/>
	</g>
</g>
<g id="Ebene_3">
	<polygon class="st0" points="467.3,116.7 463.6,112.3 473.9,96.6 477.7,101.2 	"/>
	<polygon class="st0" points="461.1,76.8 464.5,81.1 454.3,96.4 450.8,92.1 	"/>
</g>
<g id="Ebene_2">
</g>
</svg>
