<?xml version="1.0" encoding="UTF-8"?>
<svg id="Ebene_1" data-name="Ebene 1" xmlns="http://www.w3.org/2000/svg" width="630.36mm" height="592.46mm" xmlns:xlink="http://www.w3.org/1999/xlink" viewBox="0 0 1786.85 1679.42">
  <defs>
    <style>
      .cls-1 {
        fill: #010101;
      }

      .cls-2 {
        fill: #ffca00;
      }

      .cls-3 {
        fill: #fec700;
      }

      .cls-4, .cls-5 {
        fill: #1d1d1b;
      }

      .cls-5 {
        stroke-width: 10px;
      }

      .cls-5, .cls-6 {
        stroke: #1d1d1b;
        stroke-miterlimit: 10;
      }

      .cls-6 {
        fill: url(#Unbenannter_Verlauf_6);
        stroke-width: 30px;
      }
    </style>
    <radialGradient id="Unbenannter_Verlauf_6" data-name="Unbenannter Verlauf 6" cx="864.85" cy="409.08" fx="410.72" fy="315.78" r="463.62" gradientUnits="userSpaceOnUse">
      <stop offset=".86" stop-color="#fdc900"/>
      <stop offset=".86" stop-color="#fabd00"/>
      <stop offset=".86" stop-color="#f59d00"/>
      <stop offset=".86" stop-color="#f39200"/>
    </radialGradient>
  </defs>
  <polygon class="cls-4" points="1779.2 1268.89 1779.2 780.77 898.23 536.71 17.27 780.77 17.27 1268.89 898.23 1512.95 1779.2 1268.89"/>
  <g>
    <path class="cls-2" d="m66.82,1364.65c-8.35,10.49-14.03,20.87-17.03,31.15-3.01,10.27-3.12,18.46-.35,24.54,2.77,6.09,8.84,10.5,18.2,13.24,5.59,1.64,11.1,1.07,16.53-1.7,4.25-9.58,7.29-15.88,9.1-18.92,4.41-7.42,8.75-10.51,13-9.26,3.4,1,5.94,4.28,7.61,9.85,1.67,5.57,1.96,9.98.88,13.22-1.6,5.47-6.76,14.98-15.48,28.53,10.39-3.95,22.97-10.63,37.74-20.04,2.11-1.36,3.72-1.88,4.81-1.56,1.7.5,1.97,2.75.79,6.76-2.28,7.78-8.6,14.94-18.95,21.48-10.36,6.54-22.75,10.53-37.16,11.99-1.65,2.02-3.08,3.98-4.29,5.87-1.21,1.89-2.73,4.15-4.56,6.78-1.83,2.63-4.46,5.33-7.91,8.08-3.45,2.75-7.35,4.81-11.71,6.18-9.35,3.07-19.03,3.14-29.06.21-10.03-2.93-17.77-7.61-23.22-14.02-5.45-6.41-7.03-13.51-4.76-21.29,1.1-3.77,3.83-6.34,8.19-7.7,4.36-1.37,9.71-2.08,16.06-2.13,6.35-.06,13.37.31,21.06,1.11,7.69.79,15.42,1.41,23.22,1.84,1.79-2.51,3.28-4.91,4.48-7.2-5.81,2.26-12.18,2.38-19.11.35-14.47-4.23-24.96-10.54-31.49-18.91-7.58-9.74-9.21-21.96-4.91-36.67,5.62-19.21,15.82-36.02,30.6-50.44-1.92-4.26-3.25-8.51-3.99-12.75-.74-4.24-.82-7.33-.25-9.28,1-3.4,2.69-4.69,5.09-3.86,1.58.46,3.12,1.97,4.62,4.52,1.5,2.55,2.69,4.68,3.57,6.39.88,1.71,1.9,3.33,3.04,4.85,8.67-6.17,17.99-10.51,27.96-13,9.97-2.49,20.06-2.25,30.27.74,10.21,2.99,17.62,7.2,22.23,12.64,4.61,5.44,5.55,12.84,2.81,22.2-2.74,9.36-8.63,16.08-17.68,20.17-9.05,4.08-20.02,4.24-32.9.47-8.88-2.6-17.89-7.41-27.05-14.45Zm-35.82,121.76c8.27,2.42,17.31-1.66,27.14-12.25-7.19-.26-13.23-.57-18.13-.95-4.91-.38-8.89-.62-11.96-.73-3.07-.11-5.35.02-6.84.37-1.49.36-2.43,1.2-2.82,2.54-.68,2.31.39,4.43,3.18,6.38,2.8,1.94,5.94,3.49,9.43,4.64Zm45.47-132.4c5.83,4.87,13.49,8.7,22.97,11.47,5.84,1.71,10.98,1.5,15.43-.63,4.45-2.13,7.22-5.05,8.3-8.76,1.08-3.71.7-6.79-1.15-9.25-1.86-2.46-4.73-4.25-8.62-5.39-11.67-3.42-23.98.77-36.93,12.55Z"/>
    <path class="cls-2" d="m144.56,1481.23c-12.16-3.56-14.91-16.7-8.26-39.44,3.63-12.4,8.44-23.2,14.43-32.4,9.29-14.17,16.92-20.39,22.88-18.65,3.52,1.03,5.63,4.22,6.31,9.57.63,4.14.37,7.96-.78,11.45-1.42,4.86-5.39,13.01-11.9,24.43-5.93,9.88-9.26,16.1-10.01,18.65s-.62,4.5.37,5.85c.99,1.35,2.37,2.28,4.13,2.79,1.76.52,4.32.01,7.67-1.52,3.35-1.53,6.76-3.27,10.24-5.22,3.47-1.95,6.67-3.75,9.6-5.41,2.92-1.65,4.81-2.35,5.66-2.1,1.7.5,1.95,2.82.74,6.95-2.49,8.51-9.2,15.55-20.14,21.13-10.94,5.58-21.25,6.88-30.94,3.91Zm38.48-103.76c-1.86-5.82-1.97-11.53-.33-17.12,1.64-5.59,3.88-9.98,6.73-13.18,2.85-3.19,5.32-5.44,7.42-6.74,2.09-1.3,4.18-1.65,6.24-1.04,3.4,1,5.76,4.43,7.09,10.29,1.32,5.86,1.48,10.5.49,13.9-1.85,6.32-5.52,10.63-11,12.92-5.49,2.29-11.03,2.61-16.62.98Z"/>
    <path class="cls-2" d="m216.29,1408.58c-7.86-6.52-11.25-11.61-10.19-15.25.57-1.94,1.62-2.62,3.17-2.04,2.19.64,4.53,1.89,7.02,3.74,2.49,1.85,5.11,3.51,7.85,4.97,15.48-15.93,30.4-24.96,44.75-27.09,4.82-.7,9.38-.49,13.67.63,8.39,2.45,14.2,6.37,17.45,11.74,3.24,5.37,4.01,10.97,2.31,16.81-3.06,10.46-11.08,16.89-24.06,19.29-10.59,1.92-24.01,1.09-40.26-2.47-9.84,12.43-17.13,26.73-21.86,42.9-3.52,12.04-2.77,19.84,2.25,23.42,3.5,2.48,6.41,3.36,8.73,2.65,2.32-.71,4.34-1.96,6.05-3.77,1.72-1.8,3.21-4.77,4.48-8.88,1.27-4.11,1.14-7.95-.4-11.5-1.54-3.55-3.04-6.86-4.52-9.93,2.27-3.69,4.82-6.57,7.68-8.64,5.42-4.09,9.53-5.72,12.32-4.91,2.8.82,4.79,2.46,5.98,4.92,1.19,2.46,1.91,5.31,2.15,8.55.24,3.24.2,6.66-.13,10.26-.33,3.6-.49,6.98-.5,10.15,0,3.17.35,5.91,1.06,8.23.71,2.32,2.12,3.79,4.25,4.41,2.13.62,4.28.36,6.46-.78,2.18-1.14,4.22-2.49,6.13-4.04,1.91-1.55,3.65-2.99,5.22-4.31s2.94-1.81,4.09-1.47c1.15.34,2.02,1.65,2.61,3.93.58,2.28.63,4.28.13,5.98-1.14,3.89-4.4,7.95-9.8,12.18-5.4,4.23-11.06,5.44-17,3.64-5.94-1.8-10.19-4.4-12.77-7.79-3.56,4.5-8.33,7.73-14.31,9.67-5.98,1.95-13.56,1.58-22.74-1.11-9.18-2.69-16.36-7.36-21.53-14.02-6.23-8.03-7.58-18.06-4.06-30.09,5.02-17.14,14.44-33.79,28.27-49.93Zm65.02-9.09c1.12-4.29.2-6.87-2.78-7.74-2.98-.87-7.5.25-13.55,3.36-6.06,3.11-12.45,8.04-19.17,14.78,13.92,1.57,24.17.14,30.75-4.27,2.34-1.69,3.93-3.73,4.76-6.13Z"/>
    <path class="cls-2" d="m467.68,1528.46c2.19.64,2.46,3.76.83,9.35-.89,3.04-3.24,6.35-7.06,9.91-3.82,3.57-8.29,6.55-13.41,8.95-5.12,2.39-10.51,4.02-16.17,4.87-5.66.85-10.86.58-15.6-.8-6.69-1.96-9.46-8.71-8.33-20.25-10.67,9.42-23.18,12.02-37.53,7.83-8.75-2.56-14.96-7.28-18.62-14.16-3.66-6.88-4.31-14.13-1.95-21.75,6.05-20.67,17.68-34.95,34.91-42.84,11.87-5.37,22.9-6.56,33.12-3.57,4.62,1.35,8.16,2.78,10.62,4.3l3.87,2.32c11.85-22,22.21-36,31.09-41.98,2.97-2.03,5.55-2.73,7.74-2.09,3.52,1.03,6.1,4.42,7.71,10.17,1.5,4.79,1.82,8.65.97,11.57-.85,2.92-2.12,5.65-3.78,8.2-1.67,2.55-3.49,4.82-5.46,6.82s-4.08,3.89-6.31,5.68c-2.24,1.79-4.49,3.6-6.74,5.45-7.37,12.1-14.29,26.04-20.75,41.84-1.84,4.48-3.17,8.12-3.98,10.91-2.45,8.39-2.29,12.99.51,13.81,3.16.92,12.67-3.15,28.53-12.24,2.9-1.79,4.83-2.54,5.81-2.26Zm-89.27-14.24c-2.74,9.36-.64,15.05,6.29,17.08,4.13,1.21,8.76.85,13.88-1.09,5.12-1.93,9.92-6.27,14.4-13.01,3.44-10.87,8.24-22.53,14.39-34.99-10.3-.9-20.19,1.35-29.69,6.75-9.5,5.41-15.92,13.82-19.26,25.25Z"/>
    <path class="cls-2" d="m497.55,1562.34c9.48,2.77,19.76,1.69,30.84-3.25,4.1-1.83,7.53-3.64,10.29-5.4,2.76-1.77,4.69-2.49,5.78-2.17,1.7.5,2.05,2.45,1.06,5.85-1,3.4-3.02,6.94-6.07,10.6-3.05,3.66-7.29,6.87-12.72,9.64-13.34,6.79-29.12,7.51-47.36,2.18-14.47-4.23-22.79-12.34-24.95-24.33-.76-4.18-.14-9.67,1.85-16.48,1.99-6.81,5.4-13.5,10.23-20.07,4.82-6.57,10.24-11.88,16.24-15.93,6-4.05,12.36-6.71,19.06-7.98,6.71-1.27,13.37-.94,20,1,6.62,1.94,11.25,5.07,13.88,9.41,2.62,4.33,3.17,9.11,1.64,14.34-1.53,5.23-4.09,9.13-7.68,11.71-3.59,2.58-7.79,4.39-12.58,5.43-4.79,1.04-9.97,1.7-15.53,1.99-5.56.29-11.09.81-16.6,1.58l-1.33,4.56c-1.16,4.41-.24,8.04,2.75,10.9,2.99,2.86,6.72,5,11.18,6.44Zm11.95-52.33c-6.32-1.85-12.85,4.23-19.59,18.22,3.05-.95,5.89-1.77,8.54-2.45,2.64-.68,4.99-1.38,7.05-2.1,4.43-1.61,7.2-4.09,8.32-7.46.89-3.04-.55-5.11-4.32-6.21Z"/>
    <path class="cls-2" d="m547.2,1599.04c-12.16-3.56-14.91-16.7-8.26-39.44,3.63-12.4,8.44-23.2,14.43-32.4,9.29-14.17,16.92-20.39,22.88-18.65,3.52,1.03,5.63,4.22,6.31,9.57.63,4.14.37,7.96-.78,11.45-1.42,4.86-5.39,13.01-11.9,24.43-5.93,9.88-9.26,16.1-10.01,18.65-.75,2.55-.62,4.5.37,5.85.99,1.35,2.37,2.28,4.13,2.79,1.76.52,4.32.01,7.67-1.52,3.35-1.53,6.76-3.27,10.24-5.22,3.47-1.95,6.67-3.75,9.6-5.41,2.92-1.65,4.81-2.35,5.66-2.1,1.7.5,1.95,2.82.74,6.95-2.49,8.51-9.2,15.55-20.14,21.13-10.94,5.58-21.25,6.88-30.94,3.91Zm38.48-103.76c-1.86-5.82-1.97-11.53-.33-17.12,1.64-5.59,3.88-9.98,6.73-13.18,2.85-3.19,5.32-5.44,7.42-6.74,2.09-1.3,4.18-1.65,6.24-1.04,3.4,1,5.76,4.43,7.09,10.29,1.32,5.86,1.48,10.5.49,13.9-1.85,6.32-5.52,10.63-11,12.92-5.49,2.29-11.03,2.61-16.62.98Z"/>
    <path class="cls-2" d="m629.43,1523.72c4.38,1.28,7.28,6.68,8.72,16.21,7.46-4.28,15.41-5.19,23.86-2.72,8.45,2.47,14.26,6.18,17.43,11.14,3.17,4.95,3.77,10.8,1.79,17.55s-4.86,13.33-8.65,19.74c-3.79,6.41-6.52,10.99-8.18,13.74-1.66,2.75-2.78,5.09-3.35,7.04-.57,1.95-.19,3.11,1.15,3.5,1.82.53,4.41.04,7.76-1.49,3.35-1.53,6.76-3.27,10.24-5.22,3.47-1.95,6.67-3.75,9.6-5.41,2.92-1.65,4.81-2.35,5.66-2.1,1.7.5,1.95,2.82.74,6.95-2.49,8.51-9.09,15.49-19.79,20.94-16.52,4.14-26.73,5.64-30.62,4.5-.36-.11-.59-.24-.68-.4-9.73-2.85-12.31-12.05-7.76-27.61,1.96-6.68,4.39-12.64,7.3-17.86,2.91-5.22,5.04-9.02,6.4-11.39,1.35-2.38,2.42-4.9,3.21-7.57,1.28-4.38-.6-7.3-5.65-8.78-5.05-1.48-10.94.86-17.69,7s-12.09,12.99-16.01,20.56l-.37,1.28c-1.21,4.13-1.82,8.57-1.82,13.32,0,4.75-.26,7.98-.75,9.68-1.21,4.13-7.57,6.69-19.07,7.68-1.76.14-3.25.04-4.46-.32-3.04-.89-4.67-3.08-4.9-6.58-.23-3.5.63-8.59,2.59-15.28,5.05-17.26,9.36-29.53,12.94-36.8,5.17-10.89,12.41-20.32,21.74-28.28,3.18-2.76,6.05-3.77,8.61-3.03Z"/>
    <path class="cls-2" d="m724.77,1628.83c9.48,2.77,19.76,1.69,30.84-3.25,4.1-1.83,7.53-3.64,10.29-5.4,2.76-1.77,4.69-2.49,5.78-2.17,1.7.5,2.05,2.45,1.06,5.85-1,3.4-3.02,6.94-6.07,10.6-3.05,3.66-7.29,6.87-12.72,9.64-13.34,6.79-29.12,7.51-47.36,2.18-14.47-4.23-22.79-12.34-24.95-24.33-.76-4.18-.14-9.67,1.85-16.48,1.99-6.81,5.4-13.5,10.23-20.07,4.82-6.57,10.24-11.88,16.24-15.93,6-4.05,12.36-6.71,19.06-7.98,6.71-1.27,13.37-.94,20,1,6.62,1.94,11.25,5.07,13.88,9.41,2.62,4.33,3.17,9.11,1.64,14.34-1.53,5.23-4.09,9.13-7.68,11.71-3.59,2.58-7.79,4.39-12.58,5.43-4.79,1.04-9.97,1.7-15.53,1.99-5.56.29-11.09.81-16.6,1.58l-1.33,4.56c-1.16,4.41-.24,8.04,2.75,10.9,2.99,2.86,6.72,5,11.18,6.44Zm11.95-52.33c-6.32-1.85-12.85,4.23-19.59,18.22,3.05-.95,5.89-1.77,8.54-2.45,2.64-.68,4.99-1.38,7.05-2.1,4.43-1.61,7.2-4.09,8.32-7.46.89-3.04-.55-5.11-4.32-6.21Z"/>
    <path class="cls-2" d="m803.57,1574.68c4.38,1.28,7.28,6.68,8.72,16.21,7.46-4.28,15.41-5.19,23.86-2.72,8.45,2.47,14.26,6.18,17.43,11.14,3.17,4.96,3.77,10.8,1.79,17.55s-4.86,13.33-8.65,19.74c-3.79,6.41-6.52,10.99-8.18,13.74-1.66,2.75-2.78,5.09-3.35,7.04-.57,1.95-.19,3.11,1.15,3.5,1.82.53,4.41.04,7.76-1.49,3.35-1.53,6.76-3.27,10.24-5.22,3.47-1.95,6.67-3.75,9.6-5.41,2.92-1.65,4.81-2.35,5.66-2.1,1.7.5,1.95,2.82.74,6.95-2.49,8.51-9.09,15.49-19.79,20.94-16.52,4.14-26.73,5.64-30.62,4.5-.37-.11-.59-.24-.68-.4-9.73-2.85-12.31-12.05-7.76-27.61,1.96-6.68,4.39-12.64,7.3-17.86,2.91-5.22,5.04-9.02,6.4-11.39,1.35-2.38,2.42-4.9,3.21-7.57,1.28-4.38-.6-7.3-5.65-8.78-5.05-1.48-10.94.86-17.69,7s-12.09,12.99-16.01,20.56l-.37,1.28c-1.21,4.13-1.82,8.57-1.82,13.32s-.26,7.98-.75,9.68c-1.21,4.13-7.57,6.69-19.07,7.68-1.76.14-3.25.04-4.46-.32-3.04-.89-4.67-3.08-4.9-6.58-.23-3.5.63-8.59,2.59-15.28,5.05-17.26,9.36-29.53,12.94-36.8,5.17-10.89,12.41-20.32,21.74-28.28,3.18-2.76,6.05-3.77,8.61-3.03Z"/>
    <path class="cls-2" d="m979.47,1635.62c3.09,10.58,9.14,14.55,18.14,11.92,9.85-2.88,15.48-8.22,16.89-16.03.5-2.79.2-6.1-.92-9.92-1.12-3.83-3.07-7.12-5.86-9.87-4.57-4.34-11.49-8.58-20.75-12.74-15.34-6.86-24.65-15.92-27.94-27.16-3.29-11.24-2.3-20.94,2.97-29.08,5.27-8.14,12.47-13.55,21.58-16.21,9.12-2.67,17.03-2.47,23.73.58,6.7,3.06,11.4,9.2,14.11,18.44,1.78,6.08,1.29,11.96-1.47,17.65-2.76,5.69-7.32,10.06-13.68,13.11,3.78,1.66,7.59,3.39,11.41,5.17,3.7,1.82,7.23,3.96,10.58,6.41,7.45,5.61,12.63,13.4,15.55,23.36,2.03,6.93,2.25,13.66.66,20.2-1.59,6.54-4.4,12.47-8.45,17.81-4.05,5.34-8.99,9.99-14.83,13.94-5.84,3.95-11.56,6.75-17.15,8.38-11.92,3.49-21.95,3.45-30.12-.1-9.47-3.96-15.92-11.77-19.33-23.44-2.24-7.66-1.92-15.8.97-24.43,2.89-8.63,7.12-13.76,12.72-15.4,4.38-1.28,6.96-.58,7.74,2.09,1.14,3.89,1.66,7.93,1.56,12.11-.1,4.19.53,8.59,1.88,13.21Zm20.22-62.14c4.9-8.96,6.25-17.2,4.04-24.74-.67-2.31-2.46-3.9-5.35-4.77-3.1-.68-6.11-.59-9.03.27-6.56,1.92-10.68,5.44-12.36,10.54,2.99,4.8,6.44,8.61,10.37,11.42,3.92,2.81,8.03,5.24,12.33,7.28Z"/>
    <path class="cls-2" d="m1106,1618.79c9.48-2.77,17.56-9.23,24.23-19.36,2.46-3.76,4.38-7.12,5.76-10.1,1.37-2.97,2.61-4.62,3.7-4.94,1.7-.5,3.05.96,4.05,4.36,1,3.4,1.2,7.47.6,12.2s-2.44,9.72-5.52,14.98c-7.58,12.91-20.48,22.03-38.71,27.36-14.47,4.23-25.84,1.89-34.13-7.04-2.89-3.11-5.33-8.07-7.32-14.88-1.99-6.81-2.73-14.28-2.2-22.42.52-8.14,2.22-15.53,5.09-22.18,2.87-6.65,6.79-12.31,11.75-17,4.96-4.68,10.76-8,17.38-9.94,6.62-1.94,12.21-1.79,16.76.44,4.54,2.23,7.58,5.97,9.11,11.19,1.53,5.23,1.48,9.9-.16,14-1.64,4.11-4.19,7.89-7.67,11.35-3.48,3.46-7.48,6.81-12.01,10.05-4.53,3.24-8.91,6.66-13.13,10.28l1.33,4.56c1.4,4.34,4.13,6.91,8.19,7.7,4.06.79,8.36.59,12.89-.6Zm-18.15-50.52c-6.32,1.85-8.55,10.49-6.67,25.91,2.06-2.45,4.01-4.67,5.87-6.67,1.86-1.99,3.46-3.85,4.81-5.56,2.87-3.74,3.86-7.33,2.99-10.77-.89-3.04-3.22-4.01-6.99-2.91Z"/>
    <path class="cls-2" d="m1143.17,1530.71c4.38-1.28,9.74,1.7,16.08,8.95,3.97-7.63,10.18-12.68,18.63-15.15,8.45-2.47,15.34-2.48,20.68-.01,5.34,2.46,9,7.07,10.97,13.82,1.97,6.75,3.09,13.84,3.36,21.29.26,7.45.44,12.77.52,15.98.08,3.21.41,5.79.98,7.73.57,1.95,1.52,2.72,2.86,2.33,1.82-.53,3.73-2.34,5.73-5.44,2-3.09,3.93-6.4,5.81-9.92,1.87-3.52,3.6-6.76,5.17-9.73,1.57-2.97,2.78-4.58,3.64-4.83,1.7-.5,3.16,1.32,4.37,5.45,2.49,8.51.7,17.94-5.38,28.3-11.68,12.4-19.47,19.16-23.36,20.3-.37.11-.63.12-.78.03-9.73,2.85-16.86-3.51-21.42-19.07-1.96-6.68-3.11-13.01-3.47-18.98-.36-5.96-.61-10.31-.75-13.04-.14-2.73-.6-5.43-1.38-8.11-1.28-4.38-4.45-5.83-9.49-4.35-5.05,1.48-8.75,6.62-11.12,15.43-2.37,8.81-3.18,17.46-2.41,25.94l.37,1.28c1.21,4.13,3.09,8.2,5.65,12.21,2.56,4,4.08,6.86,4.58,8.56,1.21,4.13-2.77,9.72-11.92,16.75-1.4,1.07-2.71,1.78-3.93,2.14-3.04.89-5.6-.08-7.68-2.9-2.08-2.82-4.1-7.58-6.05-14.26-5.05-17.26-8.03-29.92-8.93-37.97-1.52-11.96-.5-23.81,3.06-35.54,1.19-4.04,3.07-6.44,5.62-7.19Z"/>
    <path class="cls-2" d="m1219.78,1506.31c-.64-2.19-.17-3.51,1.41-3.98,2.43-.71,5.08-.92,7.93-.64,2.86.29,5.83.31,8.93.06,3.64-23.63,10.86-40.46,21.65-50.48,3.74-3.47,7.79-5.84,12.17-7.12,8.18-2.26,14.25-1.92,18.21,1.01,3.96,2.93,6.81,7.38,8.55,13.33,3.19,11.34.93,21.67-6.77,30.98-7.7,9.31-18.37,16.36-32.02,21.15-.79,10.39-.61,21.16.54,32.31,4.21-3.21,10.02-5.9,17.43-8.07,3.21,7.37,6.51,12.35,9.91,14.92,3.39,2.57,6.58,3.42,9.56,2.55,2.98-.87,5.26-2.33,6.84-4.38s2.86-4.2,3.85-6.47c.99-2.27,1.78-4.28,2.39-6.04.6-1.76,1.39-2.78,2.37-3.07,2.07-.6,3.63.92,4.7,4.56,2.13,7.29,2.08,13.88-.16,19.75-2.24,5.87-7.13,9.91-14.67,12.11-11.79,3.45-21.09,2.8-27.89-1.94,10.5,25.96,16.5,41.5,17.99,46.6,2.67,9.12,1.71,16.46-2.86,22.02-3.78,4.67-9.35,8.08-16.7,10.23-7.36,2.15-12.95,1.97-16.79-.53-3.84-2.51-6.43-6.07-7.78-10.69-8.57-29.3-13-60-13.3-92.12-.1-10.26.34-20.03,1.33-29.29-10.29-1.34-15.9-3.59-16.83-6.76Zm55.91-43.68c-2.43.71-5.07,3.99-7.91,9.84-2.84,5.85-5.06,14.15-6.67,24.92,7.73-6.49,12.7-11.17,14.89-14.06,4.54-5.68,5.99-11.32,4.36-16.91-.92-3.16-2.48-4.42-4.67-3.78Zm3.02,162.54c.55-2.61.46-5.18-.28-7.74-2.45-8.39-7.38-20.94-14.78-37.65.62,13.41,2.2,26.48,4.74,39.2.54,2.74.9,4.42,1.08,5.03,1.35,4.62,3.42,6.52,6.22,5.7,1.46-.43,2.47-1.94,3.03-4.55Z"/>
    <path class="cls-2" d="m1491.83,1480.76c2.19-.64,4.1,1.84,5.74,7.43.89,3.04.69,7.09-.6,12.15-1.29,5.06-3.45,9.98-6.47,14.76-3.02,4.78-6.69,9.05-11,12.82-4.31,3.77-8.83,6.35-13.57,7.73-6.69,1.96-12.67-2.23-17.93-12.57-3.92,13.69-13.05,22.62-27.39,26.82-8.75,2.56-16.53,1.93-23.32-1.89-6.79-3.82-11.25-9.58-13.37-17.27-6.05-20.67-3.95-38.96,6.31-54.9,7.1-10.92,15.75-17.87,25.97-20.86,4.62-1.35,8.37-2.05,11.26-2.11l4.51-.13c-1.88-24.92-.7-42.29,3.56-52.12,1.41-3.31,3.2-5.29,5.39-5.93,3.52-1.03,7.52.44,11.98,4.41,3.85,3.23,6.2,6.3,7.05,9.22.85,2.92,1.26,5.9,1.23,8.94-.03,3.05-.34,5.94-.92,8.68s-1.34,5.47-2.26,8.18c-.92,2.71-1.84,5.46-2.74,8.23.31,14.16,2.01,29.64,5.07,46.42.87,4.76,1.71,8.54,2.53,11.34,2.46,8.39,5.08,12.17,7.88,11.35,3.16-.92,8.97-9.49,17.43-25.69,1.48-3.07,2.7-4.75,3.67-5.03Zm-82.87,36.13c2.74,9.36,7.57,13.03,14.5,11,4.13-1.21,7.83-4.01,11.1-8.4,3.27-4.39,4.97-10.63,5.11-18.72-2.96-11.01-5.2-23.42-6.74-37.23-9.16,4.79-16.28,12.02-21.37,21.69-5.09,9.67-5.96,20.22-2.62,31.65Z"/>
    <path class="cls-2" d="m1597.96,1449.7c2.19-.64,4.1,1.84,5.74,7.43.89,3.04.69,7.09-.6,12.15-1.29,5.06-3.45,9.99-6.47,14.76-3.02,4.78-6.69,9.05-11,12.82-4.31,3.77-8.83,6.35-13.57,7.73-6.45,1.89-12.41-2.5-17.91-13.17-1.63,6.15-4.51,11.65-8.64,16.48-4.13,4.84-10.48,8.51-19.05,11.02s-16.25,1.85-23.04-1.97c-6.79-3.82-11.25-9.58-13.37-17.27-6.05-20.67-3.95-38.96,6.31-54.9,4.38-6.69,8.86-11.57,13.44-14.62,4.58-3.05,9.67-5.4,15.26-7.04,5.59-1.64,10.43-2,14.53-1.08.67-4.02,2.1-6.36,4.29-7,4.25-1.24,8.84-.57,13.75,2.01,4.92,2.59,7.85,5.52,8.81,8.8-.53,4.51-1.61,10.04-3.26,16.59.66,5.88,2.47,13.86,5.42,23.95,2.95,10.09,5.71,14.76,8.26,14.02,3.16-.92,8.97-9.49,17.43-25.69,1.48-3.07,2.7-4.75,3.67-5.03Zm-82.87,36.13c2.74,9.36,7.57,13.03,14.5,11,7.38-2.29,12.36-8.04,14.95-17.24.92-3.17,1.36-6.86,1.31-11.07-3.98-13.61-6.18-25.64-6.6-36.08-9.28,4.83-16.46,12.08-21.55,21.75-5.09,9.67-5.96,20.22-2.62,31.65Z"/>
    <path class="cls-2" d="m1635.12,1399.43c14.34-4.2,22.28-3.68,23.81,1.54.85,2.92,1.22,8.02,1.12,15.31-5.64,21.32-12.95,37.38-21.93,48.19,5.74-.23,11.04-1.05,15.9-2.48,4.86-1.42,9-4.08,12.41-7.99,3.41-3.9,6.22-7.96,8.42-12.16,2.2-4.21,3.97-7.96,5.32-11.26,1.34-3.29,2.68-5.14,4.02-5.53,1.7-.5,3.23,1.56,4.58,6.18,1.35,4.62,1.36,9.6.02,14.94-1.34,5.34-3.87,10.47-7.58,15.38-8.18,10.84-19.62,18.41-34.33,22.72-5.96,1.74-11.35,2.49-16.17,2.26-4.82-.24-8.37-.75-10.64-1.54-2.28-.78-3.76-2.36-4.45-4.73-.69-2.37-1.18-5.62-1.47-9.76,1.08-3.09,3.21-6.74,6.39-10.98,3.18-4.23,6.33-8.58,9.44-13.06,3.11-4.47,5.74-8.81,7.88-13s2.75-7.86,1.82-11.03c-.36-1.21-3.39-.99-9.1.68l-29.61,10.45c-3.16.93-5.78.67-7.85-.77-2.07-1.44-3.46-3.37-4.17-5.81-1.64-5.59-.98-11.13,1.97-16.61,2.95-5.48,7.81-9.28,14.58-11.39,2.92-.85,6.67-.89,11.25-.12,4.58.77,8.18,1.24,10.8,1.39,2.62.16,5.14-.12,7.58-.83Z"/>
    <path class="cls-2" d="m1724.27,1375.92c-2.38-8.14,2.75-14.07,15.39-17.77,3.16-.92,5.44-.47,6.83,1.37,1.39,1.84,2.71,4.88,3.96,9.14,1.74,5.96,3.11,15.59,4.1,28.89.99,13.3,2.18,22.13,3.59,26.47.61,2.07,1.57,2.9,2.91,2.51,1.82-.53,3.73-2.35,5.73-5.44,2-3.09,3.93-6.4,5.81-9.92,1.87-3.52,3.6-6.76,5.17-9.73,1.57-2.97,2.78-4.58,3.64-4.83,1.7-.5,3.16,1.32,4.37,5.45,2.49,8.51.7,17.94-5.38,28.3-11.68,12.4-19.41,19.14-23.18,20.24-.37.11-.69.13-.97.08-4.62,1.35-8.32.79-11.09-1.7-2.77-2.49-5.08-5.97-6.92-10.45-1.12,5.21-3.33,10.05-6.64,14.51-3.31,4.47-7.7,7.5-13.17,9.1-9.61,2.81-17.52,3.15-23.76,1.01-6.24-2.13-10.4-6.79-12.5-13.96-.92-3.16-1.32-6.21-1.19-9.15.13-2.94.66-6.66,1.59-11.15l-7.84-46.41c2.91-4.02,7.9-7.06,14.95-9.12,5.59-1.64,9.82,1.09,12.68,8.17,2.35,5.78,3.63,11.18,3.85,16.2.21,5.02.39,11.37.53,19.05.13,7.68,1,14.26,2.61,19.73,1.28,4.38,4.66,5.76,10.13,4.16,5.96-1.74,9.59-8.48,10.91-20.22,1.05-9.02.75-18.63-.91-28.83-.41-.94-.86-2.15-1.37-3.66-.51-1.5-1-2.97-1.49-4.41-.49-1.44-.94-2.89-1.37-4.35l-.96-3.28Z"/>
  </g>
  <path class="cls-6" d="m1258.93,409.08c0,53.2-10.42,104.81-30.97,153.4-19.85,46.93-48.26,89.08-84.45,125.26-36.19,36.19-78.33,64.61-125.26,84.45-48.59,20.55-100.2,30.97-153.4,30.97s-104.81-10.42-153.4-30.97c-46.93-19.85-89.08-48.26-125.26-84.45-36.19-36.19-64.61-78.33-84.45-125.26-20.55-48.59-30.97-100.2-30.97-153.4s10.42-104.81,30.97-153.4c19.85-46.93,48.26-89.08,84.45-125.26,36.19-36.19,78.33-64.61,125.26-84.45,48.59-20.55,100.2-30.97,153.4-30.97s104.81,10.42,153.4,30.97c46.93,19.85,89.08,48.26,125.26,84.45,36.19,36.19,64.61,78.33,84.45,125.26,20.55,48.59,30.97,100.2,30.97,153.4Z"/>
  <path class="cls-5" d="m807.34,474.28c.28.49.63.97,1.05,1.39l34.19,34.19c2.57,2.57,6.75,2.57,9.32,0l16.71-16.71,16.62,16.62c2.57,2.57,6.75,2.57,9.32,0l10.82-10.82,60.92,52.23c4.17,3.58,9.48,5.42,14.97,5.21,5.49-.21,10.65-2.46,14.53-6.34,3.88-3.88,6.14-9.04,6.34-14.53.21-5.49-1.64-10.8-5.21-14.97l-52.23-60.92,10.82-10.82c2.57-2.57,2.57-6.75,0-9.32l-16.62-16.62,16.71-16.71c2.57-2.57,2.57-6.75,0-9.32l-34.19-34.19c-.48-.48-1.02-.88-1.6-1.17,6.39-22.68.68-48.07-17.13-65.88l-209.89-209.89c-16.71-16.71-43.9-16.71-60.61,0l-101.07,101.07c-16.71,16.71-16.71,43.9,0,60.61l209.9,209.9c17.93,17.92,43.54,23.58,66.33,17h0Zm179.59,54.84c2.89,3.37,2.69,8.46-.45,11.6-1.53,1.53-3.56,2.41-5.72,2.5-2.16.08-4.25-.64-5.89-2.06l-60.16-51.56,20.65-20.65,51.57,60.17Zm-45.38-84.99l-41.17,41.17h0s0,.01,0,.01l-10.47,10.47-11.96-11.96,8.84-8.84,33.98-33.98,8.84-8.84,11.96,11.96Zm-24.79-67.51l24.87,24.87-15.85,15.85c-.33.23-.65.48-.94.77l-60.98,60.98c-.29.29-.55.61-.77.94l-15.85,15.85-24.87-24.87,13.74-13.74,66.58-66.58,14.08-14.08Zm-376.32-138.56c-11.58-11.58-11.57-30.41,0-41.98l101.07-101.07c11.58-11.58,30.41-11.58,41.98,0l209.9,209.9c21.08,21.08,21.09,55.38,0,76.47l-66.58,66.58c-21.08,21.08-55.38,21.09-76.47,0l-209.9-209.9h0Z"/>
  <g>
    <polygon class="cls-4" points="51.74 1241.66 51.74 809.75 898.23 588.68 1744.73 809.75 1744.73 1241.66 898.23 1462.72 51.74 1241.66"/>
    <path class="cls-3" d="m898.23,599.02l836.49,218.45v416.46l-836.49,218.45L61.74,1233.93v-416.46l836.49-218.45m0-20.67L41.74,802.03v447.35l856.49,223.68,856.49-223.68v-447.35l-856.49-223.68h0Z"/>
  </g>
  <g>
    <path class="cls-2" d="m225.93,1154.54c-4.83,4.28-11.66,6.66-20.13,6.66-11.38,0-22.87-4.6-33.08-9.48-13.32-6.36-26.12-14.13-38.15-22.69-8.92-6.35-18.04-12.97-25.71-20.75-5.17-5.26-7.73-9.17-7.75-11.82-.06-9.17,1.39-19.38,3.76-28.2,2.57-9.58,5.48-14.59,8.93-14.05.63.1,7.22,3.3,19.58,10.99,8.74,5.44,18.27,11.83,28.25,14.2,6.18,1.47,10.49,1.26,12.4-.33,1.91-1.6,2.87-4.32,2.87-8.09s-1.76-7.41-5.26-10.76c-3.5-3.35-7.88-6.36-13.11-9-5.23-2.64-10.9-6.14-16.98-10.26-6.08-4.12-11.72-8.32-16.91-12.57-5.19-4.25-9.51-9.89-12.96-16.81-3.45-6.91-5.16-14.55-5.17-23.48-.06-39.94,28.14-72.66,62.75-88.53,13.05-5.98,26.59-11.68,40.99-13.79,11.48-1.68,19.75-.93,24.51,1.66,4.76,2.6,7.13,6.21,7.15,10.52.05,16.62-2.2,33.73-5.94,49.65-2.15,9.16-4.65,24.22-11.49,27.16-.44.19-2.74-.86-6.28-2.74-10.61-6.17-19.38-7.99-26.34-6.61-6.96,1.39-11.66,3.32-14.13,5.69-2.47,2.37-3.7,5.44-3.7,9.29s1.75,6.72,5.26,8.77c3.5,2.05,7.86,3.85,13.05,5.44,5.19,1.59,10.89,4.36,17.06,8.55,6.18,4.18,11.93,9.46,17.25,15.87,6.81,8.21,10.33,18.65,13.31,28.38,4.27,13.96,5.4,29.51,5.33,43.93-.07,15.07-1.77,30.63-7.51,45.29-3.07,7.63-7.02,13.62-11.85,17.91Z"/>
    <path class="cls-2" d="m385.84,1229.66c-35.19-10.91-70-22.8-104.52-35.69-7.98-3.02-13.34-6.19-16.1-9.38-2.76-3.19-4.14-7.03-4.14-11.57,0-95.76,0-191.52,0-287.27,0-7.86,1.9-14.14,5.72-18.95,3.81-4.8,10.68-9.19,20.62-12.9,32.77-12.06,65.79-23.23,99.15-33.53,8.1,6.91,5.19,29.87,5.22,38.82.07,20.46-.09,41.42-2.24,61.96-1.5,14.33-3.49,21.59-5.97,21.88-17.79,2.09-36.24.76-54.19.26,0,11.72,0,23.43,0,35.15,15.84-2.7,37.84-10.02,47.74-7.31,6.76,1.85,6.64,26.45,6.71,35.64.13,18-.15,36.69-2.61,54.71-1.67,12.25-4.1,18.25-7.08,18-14.92-2.03-29.84-4.06-44.76-6.09v33.57c19.65-.15,47.71-4.76,59.41.95,6.98,3.41,5.19,31.65,5.22,41.46.07,20.2,0,40.93-2.24,61.21-1.49,13.54-3.48,19.87-5.97,19.11Z"/>
    <path class="cls-2" d="m465.96,1246.95c-9.73.9-21.35-.31-30.72-2.99-10.04-2.86-16.67-6.07-19.5-9.66-2.83-3.59-4.24-8.37-4.24-14.34,0-122.31,0-244.63,0-366.94.34-11.7,6.87-22.86,14.36-31.32,8.63-9.75,19.79-18.2,32.7-21.56,4.34-1.13,8-1.74,9.8-1.21,8.21,2.42,11.03,15.8,12.07,24.95,8.25,55.54,16.3,111.11,24.2,166.7.4-.01.61-.02,1.01-.03,0-52.4,0-104.8,0-157.2.3-12.45,6.54-24.47,14.4-33.67,8.47-9.91,19.78-18.41,32.93-21.06,10.62-2.14,17.43,2.23,20.31,13.02,2.03,7.65,3.05,14.8,3.05,21.4,0,147.58,0,295.15,0,442.73,0,6.13-5.31,10.15-15.62,11.95-11.48,2.01-22.91.5-34.22-1.43-9.13-1.55-18.95-7.07-20.35-17.18-7.67-55.14-15.48-110.26-23.45-165.35-.5-.03-.76-.05-1.26-.08,0,51.14,0,102.27,0,153.4,0,5.64-5.27,8.95-15.47,9.89Z"/>
    <path class="cls-2" d="m651.41,1283.25c-9.73,1.83-21.47,2.16-31.29.52-9.77-1.63-16.23-4.34-19.12-8.18-2.88-3.83-4.33-9.34-4.33-16.51v-454.88c-.13-9.41,1.08-19.93,6.62-27.64,5.68-7.91,16.1-9.84,24.99-11.96,31.58-4.74,63.23-8.71,95-11.92,9.89,12.53,5.36,42.58,5.39,57.39.06,29.31.1,59.29-2.44,88.31-.85,9.67-.48,22.21-6.29,30.49-17.34-1.9-34.68-3.7-52.04-5.37v50.85c15.12-2.29,30.48-5.09,45.62-5.59,2.54-.08,4.39,4.05,5.26,12.12,1.67,15.44,1.43,31.45,1.41,47-.02,22.06-.58,44.52-2.57,66.46-.78,8.65-.26,24.77-7.19,31.43-14.19-2.09-28.37-4.21-42.54-6.35v149.56c0,7.48-5.65,12.22-16.5,14.27Z"/>
    <path class="cls-2" d="m898.19,1299.99c-9.63,3.26-21.5,5.2-31.7,4.96-10.47-.24-17.26-1.78-20.1-4.73-2.83-2.95-4.25-7.84-4.25-14.66v-338.19c-11.93.09-23.87.22-35.8.38-1.89.03-3.54-7.27-4.89-21.82-2.01-21.63-2.08-43.59-2.06-65.23.02-26.03.6-52.49,3.09-78.3,1.03-10.74.15-27.01,8.24-35.2,46.48-1.98,92.89-2.27,139.39-.87,2.58.09,4.33,7.49,5.28,22.17,1.36,21.17,1.44,42.51,1.42,63.63-.03,26.08-.65,52.55-2.83,78.45-.86,10.27-.2,28.5-7.73,36.83-10.74-.08-21.47-.15-32.21-.2v338.85c0,5.79-5.43,10.4-15.85,13.92Z"/>
    <path class="cls-2" d="m1044.28,1276.04c0,6.67-5.39,12.94-15.68,17.45-9.84,4.31-20.4,7.82-31.51,8.4-10.46.54-17.33-.85-20.33-4.35-3-3.5-4.51-9.19-4.51-17.02v-503.55c.1-12.3,5.6-23,16.86-28.11,13.5-6.13,28.28-6.47,42.57-5.58,10.83.68,22.3,1.85,33.26,3.49,5.02.75,10.99,2.3,17.83,4.59,6.84,2.29,12.27,5.46,16.28,9.45,4.01,3.99,8.46,9.04,13.32,15.11,4.86,6.08,8.65,13.64,11.39,22.62,3.17,10.43,5.56,21.06,7.93,31.7,6.18,29.9,6.9,60.98,6.9,91.19,0,32.87-1.13,66.6-6.77,98.94-3.61,20.69-7.9,42.75-18.04,61.67,11.84,54.45,29.37,112.89,29.41,168.55.02,28.03-25.81,39.81-50.41,42.75-9.71,1.16-16.5.59-20.26-1.56-3.76-2.15-6.16-7.5-7.19-16.07-5.59-52.26-11.15-104.52-16.69-156.79-1.75-.25-2.62-.38-4.37-.63v157.73Zm0-276.21c2.67.02,4.01.03,6.68.06,19.41-4.61,14.8-55.53,14.89-68.6.11-16.41.11-33.97-3.98-49.85-2.5-9.73-5.69-14.85-9.11-15.04-3.39-.18-5.08-.27-8.48-.45v133.88Z"/>
    <path class="cls-2" d="m1218.46,1266.22c-5.99,7.53-16.9,11.41-26.06,12.52-10.37,1.26-21.89,1.61-31.47-4.58-8.24-5.32-12.77-13.32-12.64-23.47.97-73.95,14.47-150.79,22.71-225.13,8.56-77.25,17.45-154.48,25.98-231.74.85-6.02,7.7-10.05,20.46-11.61,13.67-1.67,27.66-.57,41.06,2.42,12.35,2.75,23.41,11.77,24.13,25.28,15.38,137.27,41.81,280.19,47.55,412.2.17,4.01-1,8.63-3.01,13.32-5.12,11.3-16.32,18.12-27.91,20.92-16.57,4-45.52,6.47-45.7-18.14-.59-14.66-1.18-29.32-1.77-43.97-9.72,1.45-14.59,2.15-24.33,3.5-.42,13.06-.85,26.12-1.27,39.18-.1,9.99-1.53,21.5-7.74,29.32Zm28.02-201.32c-1.27-41.18-2.54-82.36-3.8-123.54-2.23-.16-3.34-.24-5.58-.39-1.44,41.46-2.88,82.93-4.31,124.4,5.48-.18,8.21-.27,13.69-.46Z"/>
    <path class="cls-2" d="m1384.92,1233.19c-10.87,2.79-22.48,4.72-33.95,2.08-10.37-2.4-16.04-8.97-15.78-18.71.52-19.24,6.39-39.68,10.4-58.93,9.43-45.31,20.22-90.47,31.36-135.46-13.44-60.4-34.44-125.58-37.49-184.34-.45-8.64,5.63-15.66,15.89-19.51,8.25-3.09,20.35-4.12,28.95-1.44,8.56,2.67,15.84,7.89,21.38,15.59,5.54,7.71,8.56,14.54,9.05,20.64,3.18,33.44,6.4,66.87,9.66,100.3.5.06.74.09,1.24.15,2.29-31.46,4.59-62.92,6.93-94.37.16-2.49,2.14-5.39,5.93-8.54,3.79-3.15,8.85-5.38,15.17-6.58,6.32-1.2,13.62-.26,21.88,2.71,8.26,2.96,15.16,7.5,20.7,13.35,5.54,5.84,8.59,14.17,8.31,24.26-.4,14.67-5.4,30.29-8.8,44.89-8.57,36.87-17.86,73.71-26.72,110.58,12.71,42.08,35.76,88.41,39.66,128.32,1.53,15.66-14.34,28.39-29.11,33.77-13.7,4.99-44.67,13.6-46.78-9.89-3.26-24.69-6.47-49.39-9.65-74.09-.59.09-.89.14-1.49.23-2.67,26.4-5.31,52.8-7.93,79.2-1.52,17.25-12.4,31.6-28.82,35.81Z"/>
    <path class="cls-2" d="m1561.84,1169.69c-10.57,3.99-21.42,7.76-32.93,7.94-10.15.15-15.67-4.04-15.33-11.07.69-14.41,6.22-30.18,10.1-44.69,8.89-33.23,19.35-66.23,30.43-98.9-13.39-43.91-33.42-92.88-36.39-135.71-.43-6.23,5.32-10.68,15.44-11.59,8.79-.79,19.95.93,28.08,4.47,8.29,3.61,15.35,8.68,20.71,15,5.37,6.32,8.28,11.44,8.76,15.59,3.04,22.48,6.15,44.96,9.34,67.42.48.08.72.12,1.2.2,2.19-20.08,4.41-40.15,6.69-60.22.16-1.57,2.07-3.06,5.73-4.26,3.66-1.21,8.55-1.48,14.65-.73,6.1.75,13.14,3.17,21.1,7.06,7.96,3.89,14.6,8.37,19.94,13.11,5.33,4.74,7.99,9.81,7.99,15.44,0,2.9-2.81,9.88-8.46,22.91-8.92,20.57-17.59,41.23-25.74,62.14,11.57,22.98,34.79,48.78,38.19,67.66,1.71,9.5-18,21.75-28.02,26.39-7.69,3.57-40.13,21.89-45.14,4.65-3.22-15.53-6.31-31.09-9.33-46.66-.57.12-.86.18-1.44.31-2.6,17.84-5.16,35.68-7.67,53.54-2.03,14.47-15.05,25.16-27.91,30Z"/>
  </g>
  <path class="cls-4" d="m677.42,276.4l46.69-61.02,6.65-8.69c.54-.71.36-1.73-.4-2.2h0l-2.54-1.59-68.77-42.95-2.75-1.72c-.66-.41-1.53-.26-2,.36l-10.89,14.23-3,3.92-.07-.05-.1.27-35.47,46.34c-2.36-5.28-9.1-10.6-17.96-13.53-12.48-4.13-24.42-1.96-26.68,4.84-2.26,6.81,6.03,15.68,18.5,19.82,10.69,3.54,20.99,2.45,25.14-2.22l.18-.2c.13-.15.25-.31.36-.47l32.02-41.84,69,42.42.08.05-27.5,35.93c-2.36-5.28-9.1-10.6-17.96-13.53-12.47-4.13-24.42-1.97-26.67,4.84-2.26,6.81,6.03,15.68,18.5,19.82,10.7,3.54,20.99,2.45,25.14-2.22l.19-.22c.1-.13.2-.26.3-.4Zm35.6-54.31l-68.65-42.88,3.02-3.95,3.67-4.8,69.08,42.47-3.46,4.53-3.57,4.67-.08-.05Z"/>
  <path class="cls-4" d="m800.66,315.18c12.01-8.62,10.51-24.09,9.19-37.73-.14-1.48-.29-3.01-.42-4.47-.78-9.12,1.89-15.16,4.16-20.52,0,0,0-.02.01-.03,0,0,0,0,0,0,.32-.78.16-1.71-.48-2.34-.84-.83-2.2-.81-3.02.03l-53.3,54.46c-1.57-5.08-7.13-10.69-14.88-14.35-10.93-5.16-22.07-4.51-24.89,1.45-2.82,5.96,3.76,14.99,14.68,20.15,9.37,4.43,18.89,4.58,23.19.78l.2-.18c.11-.11.22-.22.32-.33l26.91-27.49c1.86,3.27,3.83,7.37,5.39,12.26,2.32,7.23,2.98,13.73,3.06,18.7,0,0,0,0,0,.01.02.77-.09,1.53-.32,2.26-.13.4-.27.79-.42,1.18-1.32,3.45-3.44,6.47-6.77,8.86-2,1.44-4.95,3.11-10.02,3.29-.93.03-1.65.81-1.62,1.73.02.44.2.84.49,1.13.32.32.76.51,1.25.49,5.97-.21,9.48-2.2,11.87-3.91,4.52-3.25,7.13-7.46,8.55-12.19,3.1-.77,5.25-2.07,6.88-3.24Zm-1.96-2.73c-1.04.74-2.33,1.55-4.04,2.18,1.2-6.92.45-14.59-.24-21.76-.14-1.48-.29-3.01-.42-4.47-.72-8.47,1.53-14.29,3.67-19.36,1.89,3.29,3.89,7.43,5.47,12.4,2.32,7.24,2.98,13.75,3.06,18.72.01.77-.1,1.54-.33,2.28-1.27,3.93-3.49,7.37-7.18,10.02Z"/>
  <path class="cls-1" d="m813.16,412.17c3.47-2.31,5.82-5.35,7.02-9.05,4.02-12.38-6.43-27.69-6.87-28.33-.55-.8-1.64-1.01-2.45-.47-.38.25-38.21,25.67-38.81,26.07-8.59,5.74-20.79,2.6-27.19-6.98-6.4-9.58-4.62-22.05,3.97-27.79,8.59-5.74,20.8-2.6,27.2,6.98,1.7,2.53,2.87,5.37,3.45,8.36.18.96,1.12,1.59,2.08,1.41.23-.04.45-.14.65-.27l47.7-31.85c-1.29,5.38-1.49,12.05-1.36,17.35.08,3.58.41,7.15.97,10.69,2.29,14.42.53,24.41-5.24,29.7-3.38,3.1-7.66,4.04-11.1,4.19Z"/>
</svg>